# xmcd
#
# Track frame offsets:
#	150
#	2048
#	15354
#	25843
#	37810
#	51227
#	64592
#	76382
#	96792
#	113411
#	124313
#	135707
#	146537
#
# Disc length: 2087 seconds
# Revision: 2
# Processed by: cddbd v1.5.2PL0 Copyright (c) Steve Scherf et al.
# Submitted via: dBpowerAMP V12.0
#
DISCID=9b08250d
DTITLE=The Cherryholmes Family Band - Still A Little Rough Around The Edges
DYEAR=2001
DGENRE=Bluegrass
TTITLE0=Fire On The Mountain
TTITLE1=My Cabin In Caroline
TTITLE2=Just As Long As You Love Me
TTITLE3=Kentucky Mandolin
TTITLE4=Voice From On High
TTITLE5=I Was Left On The Street
TTITLE6=Clinch Mountain Backstep
TTITLE7=Just Wondering Why
TTITLE8=Tennessee 1949
TTITLE9=Take Your Shoes Off, Moses
TTITLE10=When Someone Wants To Leave
TTITLE11=A Good Woman's Love
TTITLE12=Roanoke
EXTD=
EXTT0=
EXTT1=
EXTT2=
EXTT3=
EXTT4=
EXTT5=
EXTT6=
EXTT7=
EXTT8=
EXTT9=
EXTT10=
EXTT11=
EXTT12=
PLAYORDER=
